<svg width="32" height="32" viewBox="0 0 32 32" fill="none" xmlns="http://www.w3.org/2000/svg">
    <path fill-rule="evenodd" clip-rule="evenodd" d="M1.52 30.82H2.36C3.65 30.82 4.72 30.01 4.78 28.5C4.84 27.05 3.99 26.18 2.76 26.18H1.52V30.82ZM0 25H2.87C4.84 25 6.24 26.4 6.3 28.55C6.3 30.49 4.61 32 2.64 32H0V25ZM19.29 25H24.18V26.18H20.86V27.74H23.95V28.92H20.86V30.86H24.35V32H19.29V25ZM9.56 32V30.87H11.58L9.78 26.45L7.59 32H6.02L8.83 25H10.74L13.61 32H9.56ZM12.37 26.18V25H18.67V26.18H16.36V32H14.73V26.18H12.37ZM28.12 25V26.18H29.98L28.29 30.43L26.21 25H24.58L27.45 32H29.19L32 25H28.12Z" fill="#039A9A"/>
    <path d="M0 0H32V23H0V0Z" fill="#90D033"/>
</svg>
